<svg width="21" height="19" viewBox="0 0 21 19" fill="none" xmlns="http://www.w3.org/2000/svg">
<path d="M15 0C18.0376 0 20.5 2.5 20.5 6C20.5 13 13 17 10.5 18.5C8 17 0.5 13 0.5 6C0.5 2.5 3 0 6 0C7.85997 0 9.5 1 10.5 2C11.5 1 13.14 0 15 0ZM11.4339 15.6038C12.3155 15.0485 13.11 14.4955 13.8549 13.9029C16.8337 11.533 18.5 8.9435 18.5 6C18.5 3.64076 16.963 2 15 2C13.9241 2 12.7593 2.56911 11.9142 3.41421L10.5 4.82843L9.0858 3.41421C8.24068 2.56911 7.0759 2 6 2C4.05906 2 2.5 3.6565 2.5 6C2.5 8.9435 4.16627 11.533 7.14514 13.9029C7.89 14.4955 8.6845 15.0485 9.5661 15.6038C9.8646 15.7919 10.1611 15.9729 10.5 16.1752C10.8389 15.9729 11.1354 15.7919 11.4339 15.6038Z" fill="#0C0C0C"/>
</svg>
