<svg width="14" height="14" viewBox="0 0 14 14" fill="none" xmlns="http://www.w3.org/2000/svg">
<path d="M5.26474 4.73467L1.47876 5.28357L1.4117 5.29722C1.31019 5.32417 1.21766 5.37758 1.14354 5.45199C1.06942 5.5264 1.01637 5.61914 0.989825 5.72076C0.963275 5.82237 0.964169 5.92921 0.992415 6.03037C1.02066 6.13152 1.07525 6.22337 1.1506 6.29653L3.89336 8.9663L3.24654 12.7374L3.23882 12.8027C3.23261 12.9077 3.25441 13.0125 3.30199 13.1062C3.34957 13.2 3.42123 13.2795 3.50962 13.3365C3.59801 13.3935 3.69996 13.426 3.80503 13.4306C3.9101 13.4352 4.01451 13.4119 4.10758 13.3629L7.4936 11.5827L10.8719 13.3629L10.9312 13.3902C11.0292 13.4288 11.1356 13.4406 11.2397 13.4245C11.3437 13.4083 11.4416 13.3648 11.5232 13.2984C11.6049 13.2319 11.6674 13.145 11.7044 13.0464C11.7413 12.9478 11.7514 12.8412 11.7335 12.7374L11.0861 8.9663L13.8301 6.29594L13.8763 6.2455C13.9425 6.16406 13.9858 6.06655 14.002 5.96291C14.0182 5.85927 14.0066 5.75319 13.9684 5.65548C13.9302 5.55778 13.8668 5.47194 13.7847 5.40672C13.7025 5.34149 13.6045 5.2992 13.5007 5.28417L9.71474 4.73467L8.02233 1.30474C7.97336 1.20536 7.89754 1.12168 7.80347 1.06316C7.7094 1.00465 7.60082 0.973633 7.49004 0.973633C7.37925 0.973633 7.27067 1.00465 7.1766 1.06316C7.08253 1.12168 7.00672 1.20536 6.95774 1.30474L5.26474 4.73467Z" fill="white"/>
</svg>
