<svg width="23" height="21" viewBox="0 0 23 21" fill="none" xmlns="http://www.w3.org/2000/svg">
<path d="M7.84989 7.08216L8.24023 7.02557L8.41481 6.67188L11.2678 0.891884L11.268 0.891446C11.2887 0.849581 11.3206 0.814325 11.3602 0.789672C11.3999 0.765019 11.4456 0.751953 11.4923 0.751953C11.539 0.751953 11.5847 0.765019 11.6243 0.789672C11.664 0.814325 11.6959 0.849581 11.7165 0.891446L11.7167 0.891791L14.5687 6.67179L14.7432 7.02549L15.1336 7.08215L21.5135 8.00815L21.5138 8.00818C21.5575 8.01451 21.5988 8.03233 21.6334 8.05981C21.668 8.08729 21.6947 8.12345 21.7108 8.16461C21.7269 8.20577 21.7318 8.25046 21.725 8.29413C21.7189 8.33279 21.7039 8.36944 21.6812 8.40114L21.638 8.44822L17.0292 12.9334L16.7463 13.2088L16.8131 13.5978L17.9041 19.9528L17.9041 19.9531C17.9117 19.9968 17.9074 20.0417 17.8918 20.0833C17.8763 20.1248 17.8499 20.1614 17.8155 20.1894C17.7811 20.2174 17.7399 20.2357 17.6961 20.2425C17.6569 20.2486 17.6168 20.2453 17.5793 20.2329L17.5231 20.207L11.8479 17.2164L11.4987 17.0324L11.1493 17.2161L5.44326 20.2161L5.44297 20.2162C5.40376 20.2369 5.35977 20.2467 5.3155 20.2448C5.27124 20.2428 5.22829 20.2291 5.19105 20.2051C5.15381 20.1811 5.12363 20.1476 5.10358 20.1081C5.08575 20.073 5.07651 20.0342 5.07653 19.9949L5.0838 19.9334L6.17048 13.5977L6.2372 13.2088L5.95441 12.9335L1.33241 8.43449L1.33171 8.43382C1.29997 8.40299 1.27697 8.3643 1.26507 8.32168C1.25317 8.27907 1.25279 8.23406 1.26398 8.19125C1.27516 8.14844 1.29751 8.10936 1.32874 8.07802C1.3565 8.05014 1.3904 8.02926 1.42764 8.017L1.49099 8.0041L7.84989 7.08216Z" stroke="black" stroke-width="1.5"/>
</svg>
